<svg width="26" height="26" viewBox="0 0 26 26" fill="none" xmlns="http://www.w3.org/2000/svg">
<circle cx="13" cy="13" r="13" fill="white"/>
<path fill-rule="evenodd" clip-rule="evenodd" d="M18.2803 8.28033C18.5732 7.98744 18.5732 7.51256 18.2803 7.21967C17.9874 6.92678 17.5126 6.92678 17.2197 7.21967L12.75 11.6893L8.28033 7.21967C7.98744 6.92678 7.51256 6.92678 7.21967 7.21967C6.92678 7.51256 6.92678 7.98744 7.21967 8.28033L11.6893 12.75L7.21967 17.2197C6.92678 17.5126 6.92678 17.9874 7.21967 18.2803C7.51256 18.5732 7.98744 18.5732 8.28033 18.2803L12.75 13.8107L17.2197 18.2803C17.5126 18.5732 17.9874 18.5732 18.2803 18.2803C18.5732 17.9874 18.5732 17.5126 18.2803 17.2197L13.8107 12.75L18.2803 8.28033Z" fill="#2751C1"/>
<path d="M18.2803 7.21967L17.9268 7.57322L17.9268 7.57322L18.2803 7.21967ZM18.2803 8.28033L17.9268 7.92678L17.9268 7.92678L18.2803 8.28033ZM17.2197 7.21967L17.5732 7.57322V7.57322L17.2197 7.21967ZM12.75 11.6893L12.3964 12.0429L12.75 12.3964L13.1036 12.0429L12.75 11.6893ZM8.28033 7.21967L7.92678 7.57322L7.92678 7.57322L8.28033 7.21967ZM7.21967 7.21967L7.57322 7.57322L7.57322 7.57322L7.21967 7.21967ZM7.21967 8.28033L7.57322 7.92678L7.57322 7.92678L7.21967 8.28033ZM11.6893 12.75L12.0429 13.1036L12.3964 12.75L12.0429 12.3964L11.6893 12.75ZM7.21967 17.2197L7.57322 17.5732H7.57322L7.21967 17.2197ZM7.21967 18.2803L7.57322 17.9268L7.57322 17.9268L7.21967 18.2803ZM8.28033 18.2803L7.92678 17.9268L7.92678 17.9268L8.28033 18.2803ZM12.75 13.8107L13.1036 13.4571L12.75 13.1036L12.3964 13.4571L12.75 13.8107ZM17.2197 18.2803L17.5732 17.9268V17.9268L17.2197 18.2803ZM18.2803 18.2803L17.9268 17.9268L17.9268 17.9268L18.2803 18.2803ZM18.2803 17.2197L17.9268 17.5732H17.9268L18.2803 17.2197ZM13.8107 12.75L13.4571 12.3964L13.1036 12.75L13.4571 13.1036L13.8107 12.75ZM17.9268 7.57322C18.0244 7.67085 18.0244 7.82915 17.9268 7.92678L18.6339 8.63388C19.122 8.14573 19.122 7.35427 18.6339 6.86612L17.9268 7.57322ZM17.5732 7.57322C17.6709 7.47559 17.8291 7.47559 17.9268 7.57322L18.6339 6.86612C18.1457 6.37796 17.3543 6.37796 16.8661 6.86612L17.5732 7.57322ZM13.1036 12.0429L17.5732 7.57322L16.8661 6.86612L12.3964 11.3358L13.1036 12.0429ZM13.1036 11.3358L8.63388 6.86612L7.92678 7.57322L12.3964 12.0429L13.1036 11.3358ZM8.63388 6.86612C8.14573 6.37796 7.35427 6.37796 6.86612 6.86612L7.57322 7.57322C7.67085 7.47559 7.82915 7.47559 7.92678 7.57322L8.63388 6.86612ZM6.86612 6.86612C6.37796 7.35427 6.37796 8.14573 6.86612 8.63388L7.57322 7.92678C7.47559 7.82915 7.47559 7.67085 7.57322 7.57322L6.86612 6.86612ZM6.86612 8.63388L11.3358 13.1036L12.0429 12.3964L7.57322 7.92678L6.86612 8.63388ZM7.57322 17.5732L12.0429 13.1036L11.3358 12.3964L6.86612 16.8661L7.57322 17.5732ZM7.57322 17.9268C7.47559 17.8291 7.47559 17.6709 7.57322 17.5732L6.86612 16.8661C6.37796 17.3543 6.37796 18.1457 6.86612 18.6339L7.57322 17.9268ZM7.92678 17.9268C7.82915 18.0244 7.67085 18.0244 7.57322 17.9268L6.86612 18.6339C7.35427 19.122 8.14573 19.122 8.63388 18.6339L7.92678 17.9268ZM12.3964 13.4571L7.92678 17.9268L8.63388 18.6339L13.1036 14.1642L12.3964 13.4571ZM12.3964 14.1642L16.8661 18.6339L17.5732 17.9268L13.1036 13.4571L12.3964 14.1642ZM16.8661 18.6339C17.3543 19.122 18.1457 19.122 18.6339 18.6339L17.9268 17.9268C17.8291 18.0244 17.6709 18.0244 17.5732 17.9268L16.8661 18.6339ZM18.6339 18.6339C19.122 18.1457 19.122 17.3543 18.6339 16.8661L17.9268 17.5732C18.0244 17.6709 18.0244 17.8291 17.9268 17.9268L18.6339 18.6339ZM18.6339 16.8661L14.1642 12.3964L13.4571 13.1036L17.9268 17.5732L18.6339 16.8661ZM17.9268 7.92678L13.4571 12.3964L14.1642 13.1036L18.6339 8.63388L17.9268 7.92678Z" fill="#2751C1"/>
</svg>
