<svg width="33" height="33" viewBox="0 0 33 33" fill="none" xmlns="http://www.w3.org/2000/svg">
<rect width="33" height="33" rx="5" fill="#0386FF"/>
<path d="M12.6844 14.6578L19.3125 11.3438M19.3156 20.6578L12.6938 17.3469M25 10C25 11.6569 23.6569 13 22 13C20.3431 13 19 11.6569 19 10C19 8.34315 20.3431 7 22 7C23.6569 7 25 8.34315 25 10ZM13 16C13 17.6569 11.6569 19 10 19C8.34315 19 7 17.6569 7 16C7 14.3431 8.34315 13 10 13C11.6569 13 13 14.3431 13 16ZM25 22C25 23.6569 23.6569 25 22 25C20.3431 25 19 23.6569 19 22C19 20.3431 20.3431 19 22 19C23.6569 19 25 20.3431 25 22Z" stroke="white" stroke-width="1.5"/>
</svg>
