<svg width="25" height="25" viewBox="0 0 25 25" fill="none" xmlns="http://www.w3.org/2000/svg">
<path d="M7.50487 0.0244634L22.2607 1.80669C23.1396 1.91411 23.7646 2.71001 23.6572 3.58892L21.2402 23.5792C21.1328 24.4581 20.3369 25.0831 19.458 24.9756L4.70214 23.1934C3.82323 23.086 3.19823 22.2901 3.30565 21.4112L5.72264 1.42095C5.83007 0.542042 6.62596 -0.0829585 7.50487 0.0244634Z" fill="#449ECC"/>
<path d="M6.0498 0.830078H20.9131C21.7969 0.830078 22.5146 1.54785 22.5146 2.43164V22.5684C22.5146 23.4521 21.7969 24.1699 20.9131 24.1699H6.0498C5.16602 24.1699 4.44824 23.4521 4.44824 22.5684V2.43164C4.44824 1.54785 5.16602 0.830078 6.0498 0.830078Z" fill="#52C0F7"/>
<path d="M1.84082 15.0391H15.3809C15.6592 15.0391 15.8887 15.2686 15.8887 15.5469V19.9512C15.8887 20.2295 15.6592 20.459 15.3809 20.459H1.84082C1.5625 20.459 1.33301 20.2295 1.33301 19.9512V15.5469C1.33301 15.2686 1.5625 15.0391 1.84082 15.0391Z" fill="#0077CC"/>
<path d="M19.6777 4.49219H7.59766C7.5293 4.49219 7.47559 4.43848 7.47559 4.37012C7.47559 4.30176 7.5293 4.24805 7.59766 4.24805H19.6777C19.7461 4.24805 19.7998 4.30176 19.7998 4.37012C19.7998 4.43848 19.7412 4.49219 19.6777 4.49219Z" fill="#EFEFEF"/>
<path d="M19.6777 6.02539H7.59766C7.5293 6.02539 7.47559 5.97168 7.47559 5.90332C7.47559 5.83496 7.5293 5.78125 7.59766 5.78125H19.6777C19.7461 5.78125 19.7998 5.83496 19.7998 5.90332C19.7998 5.97168 19.7412 6.02539 19.6777 6.02539Z" fill="#EFEFEF"/>
<path d="M19.6777 7.55371H7.59766C7.5293 7.55371 7.47559 7.5 7.47559 7.43164C7.47559 7.36328 7.5293 7.30957 7.59766 7.30957H19.6777C19.7461 7.30957 19.7998 7.36328 19.7998 7.43164C19.7998 7.5 19.7412 7.55371 19.6777 7.55371Z" fill="#EFEFEF"/>
<path d="M19.6777 9.08691H7.59766C7.5293 9.08691 7.47559 9.0332 7.47559 8.96484C7.47559 8.89648 7.5293 8.84277 7.59766 8.84277H19.6777C19.7461 8.84277 19.7998 8.89648 19.7998 8.96484C19.7998 9.0332 19.7412 9.08691 19.6777 9.08691Z" fill="#EFEFEF"/>
<path d="M19.6777 10.6201H7.59766C7.5293 10.6201 7.47559 10.5664 7.47559 10.498C7.47559 10.4297 7.5293 10.376 7.59766 10.376H19.6777C19.7461 10.376 19.7998 10.4297 19.7998 10.498C19.7998 10.5664 19.7412 10.6201 19.6777 10.6201Z" fill="#EFEFEF"/>
<path d="M19.6777 12.1484H7.59766C7.5293 12.1484 7.47559 12.0947 7.47559 12.0264C7.47559 11.958 7.5293 11.9043 7.59766 11.9043H19.6777C19.7461 11.9043 19.7998 11.958 19.7998 12.0264C19.7998 12.0947 19.7412 12.1484 19.6777 12.1484Z" fill="#EFEFEF"/>
<path d="M4.20898 16.3672H5.47852C5.72754 16.3672 5.93262 16.4014 6.08398 16.4697C6.24023 16.5381 6.36719 16.6357 6.46484 16.7627C6.56738 16.8896 6.63574 17.0361 6.68457 17.207C6.72852 17.3779 6.75293 17.5537 6.75293 17.7441C6.75293 18.0371 6.71875 18.2715 6.65039 18.4326C6.58203 18.5937 6.48926 18.7305 6.37207 18.8428C6.25488 18.9551 6.12305 19.0283 5.98633 19.0625C5.80078 19.1113 5.62988 19.1357 5.47852 19.1357H4.20898V16.3672ZM5.06348 16.9922V18.5059H5.27344C5.4541 18.5059 5.58105 18.4863 5.6543 18.4473C5.73242 18.4082 5.79102 18.3398 5.83008 18.2422C5.87402 18.1445 5.89355 17.9834 5.89355 17.7637C5.89355 17.4707 5.84473 17.2705 5.75195 17.1631C5.6543 17.0557 5.49805 17.002 5.27832 17.002L5.06348 16.9922Z" fill="white"/>
<path d="M7.09473 17.749C7.09473 17.2998 7.22168 16.9482 7.4707 16.6943C7.71973 16.4453 8.07129 16.3184 8.52051 16.3184C8.96973 16.3184 9.33594 16.4404 9.58496 16.6895C9.83398 16.9385 9.95605 17.2803 9.95605 17.7295C9.95605 18.0518 9.90234 18.3154 9.79492 18.5254C9.6875 18.7305 9.53125 18.8916 9.32129 19.0088C9.11621 19.126 8.85742 19.1797 8.55469 19.1797C8.25195 19.1797 7.9834 19.1309 7.77832 19.0332C7.57324 18.9355 7.40723 18.7793 7.28027 18.5596C7.16309 18.3447 7.09961 18.0713 7.09473 17.749ZM7.94922 17.7539C7.94922 18.0322 8.00293 18.2324 8.10547 18.3545C8.20801 18.4766 8.34961 18.54 8.53027 18.54C8.71094 18.54 8.85742 18.4814 8.95508 18.3594C9.05273 18.2373 9.10645 18.0273 9.10645 17.7148C9.10645 17.4561 9.05273 17.2656 8.9502 17.1436C8.84766 17.0215 8.70117 16.9629 8.52051 16.9629C8.33984 16.9629 8.20801 17.0215 8.10547 17.1484C8.00293 17.2754 7.94922 17.4756 7.94922 17.7539Z" fill="white"/>
<path d="M12.2656 17.998L13.0127 18.2227C12.9639 18.4326 12.8809 18.6084 12.7734 18.75C12.666 18.8916 12.5293 18.999 12.3682 19.0674C12.207 19.1406 12.002 19.1748 11.7578 19.1748C11.4551 19.1748 11.2109 19.1309 11.0205 19.043C10.8301 18.9551 10.6641 18.8037 10.5273 18.584C10.3906 18.3643 10.3223 18.0811 10.3223 17.7393C10.3223 17.2803 10.4443 16.9287 10.6885 16.6846C10.9326 16.4404 11.2744 16.3184 11.7188 16.3184C12.0654 16.3184 12.3389 16.3867 12.5391 16.5283C12.7393 16.6699 12.8857 16.8848 12.9834 17.1777L12.2314 17.3438C12.207 17.2607 12.1777 17.1973 12.1484 17.1582C12.0996 17.0947 12.041 17.041 11.9727 17.0068C11.9043 16.9727 11.8262 16.9531 11.7383 16.9531C11.543 16.9531 11.3965 17.0312 11.2939 17.1875C11.2158 17.3047 11.1768 17.4854 11.1768 17.7295C11.1768 18.0371 11.2207 18.2471 11.3184 18.3594C11.4111 18.4717 11.543 18.5303 11.709 18.5303C11.875 18.5303 11.9971 18.4863 12.0801 18.3936C12.168 18.3105 12.2266 18.1738 12.2656 17.998Z" fill="white"/>
</svg>
